<svg viewBox="0 0 1200 860" class="h-full w-full" style="transform:translate(0px, 0px) scale(1);transform-origin:0 0"><defs><pattern id="malha" width="40" height="40" patternUnits="userSpaceOnUse"><path d="M40 0 L0 0 0 40" fill="none" stroke="oklch(0.9 0.01 150)" stroke-width="1"></path></pattern></defs><rect width="1200" height="860" fill="url(#malha)"></rect><path d="M50,50 L1140,50 L1150,300 L1135,640 L1000,800 L520,810 L120,780 L45,520 Z" class="fill-[oklch(0.99_0.005_150)] stroke-foreground/60" stroke-width="3"></path><path d="M120,640 L330,640 L340,770 L140,760 Z" class="fill-disponivel/60 stroke-disponivel-foreground/50" stroke-width="1.5" stroke-dasharray="6 4"></path><path d="M990,90 L1130,95 L1140,240 L1000,235 Z" class="fill-disponivel/60 stroke-disponivel-foreground/50" stroke-width="1.5" stroke-dasharray="6 4"></path><g><path d="M40,225 L1160,215" class="stroke-[oklch(0.86_0.01_120)]" stroke-width="26" fill="none"></path><path d="M40,225 L1160,215" class="stroke-foreground/25" stroke-width="1" stroke-dasharray="10 8" fill="none"></path></g><g><path d="M40,410 L1160,420" class="stroke-[oklch(0.86_0.01_120)]" stroke-width="26" fill="none"></path><path d="M40,410 L1160,420" class="stroke-foreground/25" stroke-width="1" stroke-dasharray="10 8" fill="none"></path></g><g><path d="M60,600 L1160,610" class="stroke-[oklch(0.86_0.01_120)]" stroke-width="26" fill="none"></path><path d="M60,600 L1160,610" class="stroke-foreground/25" stroke-width="1" stroke-dasharray="10 8" fill="none"></path></g><g><path d="M385,40 L385,800" class="stroke-[oklch(0.86_0.01_120)]" stroke-width="26" fill="none"></path><path d="M385,40 L385,800" class="stroke-foreground/25" stroke-width="1" stroke-dasharray="10 8" fill="none"></path></g><g><path d="M665,40 L665,800" class="stroke-[oklch(0.86_0.01_120)]" stroke-width="26" fill="none"></path><path d="M665,40 L665,800" class="stroke-foreground/25" stroke-width="1" stroke-dasharray="10 8" fill="none"></path></g><g><path d="M915,40 L915,800" class="stroke-[oklch(0.86_0.01_120)]" stroke-width="26" fill="none"></path><path d="M915,40 L915,800" class="stroke-foreground/25" stroke-width="1" stroke-dasharray="10 8" fill="none"></path></g><g><polygon points="70.0,70.0 107.5,70.0 107.5,135.0 70.0,135.0" class="cursor-pointer stroke-foreground/70 transition-[fill-opacity] fill-disponivel-foreground/70" stroke-width="3"></polygon><polygon points="107.5,70.0 145.0,70.0 145.0,135.0 107.5,135.0" class="cursor-pointer stroke-foreground/70 transition-[fill-opacity] fill-disponivel-foreground/70" stroke-width="0.8"></polygon><polygon points="145.0,70.0 182.5,70.0 182.5,135.0 145.0,135.0" class="cursor-pointer stroke-foreground/70 transition-[fill-opacity] fill-disponivel-foreground/70" stroke-width="0.8"></polygon><polygon points="182.5,70.0 220.0,70.0 220.0,135.0 182.5,135.0" class="cursor-pointer stroke-foreground/70 transition-[fill-opacity] fill-reservado-foreground/70" stroke-width="0.8"></polygon><polygon points="220.0,70.0 257.5,70.0 257.5,135.0 220.0,135.0" class="cursor-pointer stroke-foreground/70 transition-[fill-opacity] fill-vendido-foreground/70" stroke-width="0.8"></polygon><polygon points="257.5,70.0 295.0,70.0 295.0,135.0 257.5,135.0" class="cursor-pointer stroke-foreground/70 transition-[fill-opacity] fill-disponivel-foreground/70" stroke-width="0.8"></polygon><polygon points="295.0,70.0 332.5,70.0 332.5,135.0 295.0,135.0" class="cursor-pointer stroke-foreground/70 transition-[fill-opacity] fill-aprovacao-foreground/70" stroke-width="0.8"></polygon><polygon points="332.5,70.0 370.0,70.0 370.0,135.0 332.5,135.0" class="cursor-pointer stroke-foreground/70 transition-[fill-opacity] fill-vendido-foreground/70" stroke-width="0.8"></polygon><polygon points="70.0,135.0 107.5,135.0 107.5,200.0 70.0,200.0" class="cursor-pointer stroke-foreground/70 transition-[fill-opacity] fill-disponivel-foreground/70" stroke-width="0.8"></polygon><polygon points="107.5,135.0 145.0,135.0 145.0,200.0 107.5,200.0" class="cursor-pointer stroke-foreground/70 transition-[fill-opacity] fill-bloqueado-foreground/60" stroke-width="0.8"></polygon><polygon points="145.0,135.0 182.5,135.0 182.5,200.0 145.0,200.0" class="cursor-pointer stroke-foreground/70 transition-[fill-opacity] fill-disponivel-foreground/70" stroke-width="0.8"></polygon><polygon points="182.5,135.0 220.0,135.0 220.0,200.0 182.5,200.0" class="cursor-pointer stroke-foreground/70 transition-[fill-opacity] fill-cancelado-foreground/70" stroke-width="0.8"></polygon><polygon points="220.0,135.0 257.5,135.0 257.5,200.0 220.0,200.0" class="cursor-pointer stroke-foreground/70 transition-[fill-opacity] fill-disponivel-foreground/70" stroke-width="0.8"></polygon><polygon points="257.5,135.0 295.0,135.0 295.0,200.0 257.5,200.0" class="cursor-pointer stroke-foreground/70 transition-[fill-opacity] fill-disponivel-foreground/70" stroke-width="0.8"></polygon><polygon points="295.0,135.0 332.5,135.0 332.5,200.0 295.0,200.0" class="cursor-pointer stroke-foreground/70 transition-[fill-opacity] fill-disponivel-foreground/70" stroke-width="0.8"></polygon><polygon points="332.5,135.0 370.0,135.0 370.0,200.0 332.5,200.0" class="cursor-pointer stroke-foreground/70 transition-[fill-opacity] fill-reservado-foreground/70" stroke-width="0.8"></polygon><text x="220" y="135" text-anchor="middle" dominant-baseline="middle" class="pointer-events-none fill-foreground/45 font-display" font-size="22" font-weight="800">Q<!-- -->01</text></g><g><polygon points="400.0,70.0 435.7,70.0 435.7,135.0 400.0,135.0" class="cursor-pointer stroke-foreground/70 transition-[fill-opacity] fill-vendido-foreground/70" stroke-width="0.8"></polygon><polygon points="435.7,70.0 471.4,70.0 471.4,135.0 435.7,135.0" class="cursor-pointer stroke-foreground/70 transition-[fill-opacity] fill-disponivel-foreground/70" stroke-width="0.8"></polygon><polygon points="471.4,70.0 507.1,70.0 507.1,135.0 471.4,135.0" class="cursor-pointer stroke-foreground/70 transition-[fill-opacity] fill-aprovacao-foreground/70" stroke-width="0.8"></polygon><polygon points="507.1,70.0 542.9,70.0 542.9,135.0 507.1,135.0" class="cursor-pointer stroke-foreground/70 transition-[fill-opacity] fill-vendido-foreground/70" stroke-width="0.8"></polygon><polygon points="542.9,70.0 578.6,70.0 578.6,135.0 542.9,135.0" class="cursor-pointer stroke-foreground/70 transition-[fill-opacity] fill-disponivel-foreground/70" stroke-width="0.8"></polygon><polygon points="578.6,70.0 614.3,70.0 614.3,135.0 578.6,135.0" class="cursor-pointer stroke-foreground/70 transition-[fill-opacity] fill-bloqueado-foreground/60" stroke-width="0.8"></polygon><polygon points="614.3,70.0 650.0,70.0 650.0,135.0 614.3,135.0" class="cursor-pointer stroke-foreground/70 transition-[fill-opacity] fill-disponivel-foreground/70" stroke-width="0.8"></polygon><polygon points="400.0,135.0 435.7,135.0 435.7,200.0 400.0,200.0" class="cursor-pointer stroke-foreground/70 transition-[fill-opacity] fill-cancelado-foreground/70" stroke-width="0.8"></polygon><polygon points="435.7,135.0 471.4,135.0 471.4,200.0 435.7,200.0" class="cursor-pointer stroke-foreground/70 transition-[fill-opacity] fill-disponivel-foreground/70" stroke-width="0.8"></polygon><polygon points="471.4,135.0 507.1,135.0 507.1,200.0 471.4,200.0" class="cursor-pointer stroke-foreground/70 transition-[fill-opacity] fill-disponivel-foreground/70" stroke-width="0.8"></polygon><polygon points="507.1,135.0 542.9,135.0 542.9,200.0 507.1,200.0" class="cursor-pointer stroke-foreground/70 transition-[fill-opacity] fill-disponivel-foreground/70" stroke-width="0.8"></polygon><polygon points="542.9,135.0 578.6,135.0 578.6,200.0 542.9,200.0" class="cursor-pointer stroke-foreground/70 transition-[fill-opacity] fill-reservado-foreground/70" stroke-width="0.8"></polygon><polygon points="578.6,135.0 614.3,135.0 614.3,200.0 578.6,200.0" class="cursor-pointer stroke-foreground/70 transition-[fill-opacity] fill-vendido-foreground/70" stroke-width="0.8"></polygon><polygon points="614.3,135.0 650.0,135.0 650.0,200.0 614.3,200.0" class="cursor-pointer stroke-foreground/70 transition-[fill-opacity] fill-disponivel-foreground/70" stroke-width="0.8"></polygon><text x="525" y="135" text-anchor="middle" dominant-baseline="middle" class="pointer-events-none fill-foreground/45 font-display" font-size="22" font-weight="800">Q<!-- -->02</text></g><g><polygon points="680.0,70.0 716.7,70.0 723.7,135.0 687.0,135.0" class="cursor-pointer stroke-foreground/70 transition-[fill-opacity] fill-aprovacao-foreground/70" stroke-width="0.8"></polygon><polygon points="716.7,70.0 753.3,70.0 760.3,135.0 723.7,135.0" class="cursor-pointer stroke-foreground/70 transition-[fill-opacity] fill-vendido-foreground/70" stroke-width="0.8"></polygon><polygon points="753.3,70.0 790.0,70.0 797.0,135.0 760.3,135.0" class="cursor-pointer stroke-foreground/70 transition-[fill-opacity] fill-disponivel-foreground/70" stroke-width="0.8"></polygon><polygon points="790.0,70.0 826.7,70.0 833.7,135.0 797.0,135.0" class="cursor-pointer stroke-foreground/70 transition-[fill-opacity] fill-bloqueado-foreground/60" stroke-width="0.8"></polygon><polygon points="826.7,70.0 863.3,70.0 870.3,135.0 833.7,135.0" class="cursor-pointer stroke-foreground/70 transition-[fill-opacity] fill-disponivel-foreground/70" stroke-width="0.8"></polygon><polygon points="863.3,70.0 900.0,70.0 907.0,135.0 870.3,135.0" class="cursor-pointer stroke-foreground/70 transition-[fill-opacity] fill-cancelado-foreground/70" stroke-width="0.8"></polygon><polygon points="687.0,135.0 723.7,135.0 730.7,200.0 694.0,200.0" class="cursor-pointer stroke-foreground/70 transition-[fill-opacity] fill-disponivel-foreground/70" stroke-width="0.8"></polygon><polygon points="723.7,135.0 760.3,135.0 767.3,200.0 730.7,200.0" class="cursor-pointer stroke-foreground/70 transition-[fill-opacity] fill-disponivel-foreground/70" stroke-width="0.8"></polygon><polygon points="760.3,135.0 797.0,135.0 804.0,200.0 767.3,200.0" class="cursor-pointer stroke-foreground/70 transition-[fill-opacity] fill-disponivel-foreground/70" stroke-width="0.8"></polygon><polygon points="797.0,135.0 833.7,135.0 840.7,200.0 804.0,200.0" class="cursor-pointer stroke-foreground/70 transition-[fill-opacity] fill-reservado-foreground/70" stroke-width="0.8"></polygon><polygon points="833.7,135.0 870.3,135.0 877.3,200.0 840.7,200.0" class="cursor-pointer stroke-foreground/70 transition-[fill-opacity] fill-vendido-foreground/70" stroke-width="0.8"></polygon><polygon points="870.3,135.0 907.0,135.0 914.0,200.0 877.3,200.0" class="cursor-pointer stroke-foreground/70 transition-[fill-opacity] fill-disponivel-foreground/70" stroke-width="0.8"></polygon><text x="790" y="135" text-anchor="middle" dominant-baseline="middle" class="pointer-events-none fill-foreground/45 font-display" font-size="22" font-weight="800">Q<!-- -->03</text></g><g><polygon points="930.0,90.0 968.0,90.0 959.0,165.0 921.0,165.0" class="cursor-pointer stroke-foreground/70 transition-[fill-opacity] fill-aprovacao-foreground/70" stroke-width="0.8"></polygon><polygon points="968.0,90.0 1006.0,90.0 997.0,165.0 959.0,165.0" class="cursor-pointer stroke-foreground/70 transition-[fill-opacity] fill-vendido-foreground/70" stroke-width="0.8"></polygon><polygon points="1006.0,90.0 1044.0,90.0 1035.0,165.0 997.0,165.0" class="cursor-pointer stroke-foreground/70 transition-[fill-opacity] fill-disponivel-foreground/70" stroke-width="0.8"></polygon><polygon points="1044.0,90.0 1082.0,90.0 1073.0,165.0 1035.0,165.0" class="cursor-pointer stroke-foreground/70 transition-[fill-opacity] fill-bloqueado-foreground/60" stroke-width="0.8"></polygon><polygon points="1082.0,90.0 1120.0,90.0 1111.0,165.0 1073.0,165.0" class="cursor-pointer stroke-foreground/70 transition-[fill-opacity] fill-disponivel-foreground/70" stroke-width="0.8"></polygon><polygon points="921.0,165.0 959.0,165.0 950.0,240.0 912.0,240.0" class="cursor-pointer stroke-foreground/70 transition-[fill-opacity] fill-cancelado-foreground/70" stroke-width="0.8"></polygon><polygon points="959.0,165.0 997.0,165.0 988.0,240.0 950.0,240.0" class="cursor-pointer stroke-foreground/70 transition-[fill-opacity] fill-disponivel-foreground/70" stroke-width="0.8"></polygon><polygon points="997.0,165.0 1035.0,165.0 1026.0,240.0 988.0,240.0" class="cursor-pointer stroke-foreground/70 transition-[fill-opacity] fill-disponivel-foreground/70" stroke-width="0.8"></polygon><polygon points="1035.0,165.0 1073.0,165.0 1064.0,240.0 1026.0,240.0" class="cursor-pointer stroke-foreground/70 transition-[fill-opacity] fill-disponivel-foreground/70" stroke-width="0.8"></polygon><polygon points="1073.0,165.0 1111.0,165.0 1102.0,240.0 1064.0,240.0" class="cursor-pointer stroke-foreground/70 transition-[fill-opacity] fill-reservado-foreground/70" stroke-width="0.8"></polygon><text x="1025" y="165" text-anchor="middle" dominant-baseline="middle" class="pointer-events-none fill-foreground/45 font-display" font-size="22" font-weight="800">Q<!-- -->04</text></g><g><polygon points="70.0,245.0 107.5,245.0 107.5,315.0 70.0,315.0" class="cursor-pointer stroke-foreground/70 transition-[fill-opacity] fill-vendido-foreground/70" stroke-width="0.8"></polygon><polygon points="107.5,245.0 145.0,245.0 145.0,315.0 107.5,315.0" class="cursor-pointer stroke-foreground/70 transition-[fill-opacity] fill-disponivel-foreground/70" stroke-width="0.8"></polygon><polygon points="145.0,245.0 182.5,245.0 182.5,315.0 145.0,315.0" class="cursor-pointer stroke-foreground/70 transition-[fill-opacity] fill-aprovacao-foreground/70" stroke-width="0.8"></polygon><polygon points="182.5,245.0 220.0,245.0 220.0,315.0 182.5,315.0" class="cursor-pointer stroke-foreground/70 transition-[fill-opacity] fill-vendido-foreground/70" stroke-width="0.8"></polygon><polygon points="220.0,245.0 257.5,245.0 257.5,315.0 220.0,315.0" class="cursor-pointer stroke-foreground/70 transition-[fill-opacity] fill-disponivel-foreground/70" stroke-width="0.8"></polygon><polygon points="257.5,245.0 295.0,245.0 295.0,315.0 257.5,315.0" class="cursor-pointer stroke-foreground/70 transition-[fill-opacity] fill-bloqueado-foreground/60" stroke-width="0.8"></polygon><polygon points="295.0,245.0 332.5,245.0 332.5,315.0 295.0,315.0" class="cursor-pointer stroke-foreground/70 transition-[fill-opacity] fill-disponivel-foreground/70" stroke-width="0.8"></polygon><polygon points="332.5,245.0 370.0,245.0 370.0,315.0 332.5,315.0" class="cursor-pointer stroke-foreground/70 transition-[fill-opacity] fill-cancelado-foreground/70" stroke-width="0.8"></polygon><polygon points="70.0,315.0 107.5,315.0 107.5,385.0 70.0,385.0" class="cursor-pointer stroke-foreground/70 transition-[fill-opacity] fill-disponivel-foreground/70" stroke-width="0.8"></polygon><polygon points="107.5,315.0 145.0,315.0 145.0,385.0 107.5,385.0" class="cursor-pointer stroke-foreground/70 transition-[fill-opacity] fill-disponivel-foreground/70" stroke-width="0.8"></polygon><polygon points="145.0,315.0 182.5,315.0 182.5,385.0 145.0,385.0" class="cursor-pointer stroke-foreground/70 transition-[fill-opacity] fill-disponivel-foreground/70" stroke-width="0.8"></polygon><polygon points="182.5,315.0 220.0,315.0 220.0,385.0 182.5,385.0" class="cursor-pointer stroke-foreground/70 transition-[fill-opacity] fill-reservado-foreground/70" stroke-width="0.8"></polygon><polygon points="220.0,315.0 257.5,315.0 257.5,385.0 220.0,385.0" class="cursor-pointer stroke-foreground/70 transition-[fill-opacity] fill-vendido-foreground/70" stroke-width="0.8"></polygon><polygon points="257.5,315.0 295.0,315.0 295.0,385.0 257.5,385.0" class="cursor-pointer stroke-foreground/70 transition-[fill-opacity] fill-disponivel-foreground/70" stroke-width="0.8"></polygon><polygon points="295.0,315.0 332.5,315.0 332.5,385.0 295.0,385.0" class="cursor-pointer stroke-foreground/70 transition-[fill-opacity] fill-aprovacao-foreground/70" stroke-width="0.8"></polygon><polygon points="332.5,315.0 370.0,315.0 370.0,385.0 332.5,385.0" class="cursor-pointer stroke-foreground/70 transition-[fill-opacity] fill-vendido-foreground/70" stroke-width="0.8"></polygon><text x="220" y="315" text-anchor="middle" dominant-baseline="middle" class="pointer-events-none fill-foreground/45 font-display" font-size="22" font-weight="800">Q<!-- -->05</text></g><g><polygon points="400.0,245.0 435.7,245.0 435.7,315.0 400.0,315.0" class="cursor-pointer stroke-foreground/70 transition-[fill-opacity] fill-disponivel-foreground/70" stroke-width="0.8"></polygon><polygon points="435.7,245.0 471.4,245.0 471.4,315.0 435.7,315.0" class="cursor-pointer stroke-foreground/70 transition-[fill-opacity] fill-bloqueado-foreground/60" stroke-width="0.8"></polygon><polygon points="471.4,245.0 507.1,245.0 507.1,315.0 471.4,315.0" class="cursor-pointer stroke-foreground/70 transition-[fill-opacity] fill-disponivel-foreground/70" stroke-width="0.8"></polygon><polygon points="507.1,245.0 542.9,245.0 542.9,315.0 507.1,315.0" class="cursor-pointer stroke-foreground/70 transition-[fill-opacity] fill-cancelado-foreground/70" stroke-width="0.8"></polygon><polygon points="542.9,245.0 578.6,245.0 578.6,315.0 542.9,315.0" class="cursor-pointer stroke-foreground/70 transition-[fill-opacity] fill-disponivel-foreground/70" stroke-width="0.8"></polygon><polygon points="578.6,245.0 614.3,245.0 614.3,315.0 578.6,315.0" class="cursor-pointer stroke-foreground/70 transition-[fill-opacity] fill-disponivel-foreground/70" stroke-width="0.8"></polygon><polygon points="614.3,245.0 650.0,245.0 650.0,315.0 614.3,315.0" class="cursor-pointer stroke-foreground/70 transition-[fill-opacity] fill-disponivel-foreground/70" stroke-width="0.8"></polygon><polygon points="400.0,315.0 435.7,315.0 435.7,385.0 400.0,385.0" class="cursor-pointer stroke-foreground/70 transition-[fill-opacity] fill-reservado-foreground/70" stroke-width="0.8"></polygon><polygon points="435.7,315.0 471.4,315.0 471.4,385.0 435.7,385.0" class="cursor-pointer stroke-foreground/70 transition-[fill-opacity] fill-vendido-foreground/70" stroke-width="0.8"></polygon><polygon points="471.4,315.0 507.1,315.0 507.1,385.0 471.4,385.0" class="cursor-pointer stroke-foreground/70 transition-[fill-opacity] fill-disponivel-foreground/70" stroke-width="0.8"></polygon><polygon points="507.1,315.0 542.9,315.0 542.9,385.0 507.1,385.0" class="cursor-pointer stroke-foreground/70 transition-[fill-opacity] fill-aprovacao-foreground/70" stroke-width="0.8"></polygon><polygon points="542.9,315.0 578.6,315.0 578.6,385.0 542.9,385.0" class="cursor-pointer stroke-foreground/70 transition-[fill-opacity] fill-vendido-foreground/70" stroke-width="0.8"></polygon><polygon points="578.6,315.0 614.3,315.0 614.3,385.0 578.6,385.0" class="cursor-pointer stroke-foreground/70 transition-[fill-opacity] fill-disponivel-foreground/70" stroke-width="0.8"></polygon><polygon points="614.3,315.0 650.0,315.0 650.0,385.0 614.3,385.0" class="cursor-pointer stroke-foreground/70 transition-[fill-opacity] fill-bloqueado-foreground/60" stroke-width="0.8"></polygon><text x="525" y="315" text-anchor="middle" dominant-baseline="middle" class="pointer-events-none fill-foreground/45 font-display" font-size="22" font-weight="800">Q<!-- -->06</text></g><g><polygon points="680.0,260.0 716.7,260.0 716.7,330.0 680.0,330.0" class="cursor-pointer stroke-foreground/70 transition-[fill-opacity] fill-disponivel-foreground/70" stroke-width="0.8"></polygon><polygon points="716.7,260.0 753.3,260.0 753.3,330.0 716.7,330.0" class="cursor-pointer stroke-foreground/70 transition-[fill-opacity] fill-cancelado-foreground/70" stroke-width="0.8"></polygon><polygon points="753.3,260.0 790.0,260.0 790.0,330.0 753.3,330.0" class="cursor-pointer stroke-foreground/70 transition-[fill-opacity] fill-disponivel-foreground/70" stroke-width="0.8"></polygon><polygon points="790.0,260.0 826.7,260.0 826.7,330.0 790.0,330.0" class="cursor-pointer stroke-foreground/70 transition-[fill-opacity] fill-disponivel-foreground/70" stroke-width="0.8"></polygon><polygon points="826.7,260.0 863.3,260.0 863.3,330.0 826.7,330.0" class="cursor-pointer stroke-foreground/70 transition-[fill-opacity] fill-disponivel-foreground/70" stroke-width="0.8"></polygon><polygon points="863.3,260.0 900.0,260.0 900.0,330.0 863.3,330.0" class="cursor-pointer stroke-foreground/70 transition-[fill-opacity] fill-reservado-foreground/70" stroke-width="0.8"></polygon><polygon points="680.0,330.0 716.7,330.0 716.7,400.0 680.0,400.0" class="cursor-pointer stroke-foreground/70 transition-[fill-opacity] fill-vendido-foreground/70" stroke-width="0.8"></polygon><polygon points="716.7,330.0 753.3,330.0 753.3,400.0 716.7,400.0" class="cursor-pointer stroke-foreground/70 transition-[fill-opacity] fill-disponivel-foreground/70" stroke-width="0.8"></polygon><polygon points="753.3,330.0 790.0,330.0 790.0,400.0 753.3,400.0" class="cursor-pointer stroke-foreground/70 transition-[fill-opacity] fill-aprovacao-foreground/70" stroke-width="0.8"></polygon><polygon points="790.0,330.0 826.7,330.0 826.7,400.0 790.0,400.0" class="cursor-pointer stroke-foreground/70 transition-[fill-opacity] fill-vendido-foreground/70" stroke-width="0.8"></polygon><polygon points="826.7,330.0 863.3,330.0 863.3,400.0 826.7,400.0" class="cursor-pointer stroke-foreground/70 transition-[fill-opacity] fill-disponivel-foreground/70" stroke-width="0.8"></polygon><polygon points="863.3,330.0 900.0,330.0 900.0,400.0 863.3,400.0" class="cursor-pointer stroke-foreground/70 transition-[fill-opacity] fill-bloqueado-foreground/60" stroke-width="0.8"></polygon><text x="790" y="330" text-anchor="middle" dominant-baseline="middle" class="pointer-events-none fill-foreground/45 font-display" font-size="22" font-weight="800">Q<!-- -->07</text></g><g><polygon points="930.0,285.0 968.0,285.0 968.0,355.0 930.0,355.0" class="cursor-pointer stroke-foreground/70 transition-[fill-opacity] fill-disponivel-foreground/70" stroke-width="0.8"></polygon><polygon points="968.0,285.0 1006.0,285.0 1006.0,355.0 968.0,355.0" class="cursor-pointer stroke-foreground/70 transition-[fill-opacity] fill-cancelado-foreground/70" stroke-width="0.8"></polygon><polygon points="1006.0,285.0 1044.0,285.0 1044.0,355.0 1006.0,355.0" class="cursor-pointer stroke-foreground/70 transition-[fill-opacity] fill-disponivel-foreground/70" stroke-width="0.8"></polygon><polygon points="1044.0,285.0 1082.0,285.0 1082.0,355.0 1044.0,355.0" class="cursor-pointer stroke-foreground/70 transition-[fill-opacity] fill-disponivel-foreground/70" stroke-width="0.8"></polygon><polygon points="1082.0,285.0 1120.0,285.0 1120.0,355.0 1082.0,355.0" class="cursor-pointer stroke-foreground/70 transition-[fill-opacity] fill-disponivel-foreground/70" stroke-width="0.8"></polygon><polygon points="930.0,355.0 968.0,355.0 968.0,425.0 930.0,425.0" class="cursor-pointer stroke-foreground/70 transition-[fill-opacity] fill-reservado-foreground/70" stroke-width="0.8"></polygon><polygon points="968.0,355.0 1006.0,355.0 1006.0,425.0 968.0,425.0" class="cursor-pointer stroke-foreground/70 transition-[fill-opacity] fill-vendido-foreground/70" stroke-width="0.8"></polygon><polygon points="1006.0,355.0 1044.0,355.0 1044.0,425.0 1006.0,425.0" class="cursor-pointer stroke-foreground/70 transition-[fill-opacity] fill-disponivel-foreground/70" stroke-width="0.8"></polygon><polygon points="1044.0,355.0 1082.0,355.0 1082.0,425.0 1044.0,425.0" class="cursor-pointer stroke-foreground/70 transition-[fill-opacity] fill-aprovacao-foreground/70" stroke-width="0.8"></polygon><polygon points="1082.0,355.0 1120.0,355.0 1120.0,425.0 1082.0,425.0" class="cursor-pointer stroke-foreground/70 transition-[fill-opacity] fill-vendido-foreground/70" stroke-width="0.8"></polygon><text x="1025" y="355" text-anchor="middle" dominant-baseline="middle" class="pointer-events-none fill-foreground/45 font-display" font-size="22" font-weight="800">Q<!-- -->08</text></g><g><polygon points="100.0,430.0 138.6,430.0 143.6,502.5 105.0,502.5" class="cursor-pointer stroke-foreground/70 transition-[fill-opacity] fill-disponivel-foreground/70" stroke-width="0.8"></polygon><polygon points="138.6,430.0 177.1,430.0 182.1,502.5 143.6,502.5" class="cursor-pointer stroke-foreground/70 transition-[fill-opacity] fill-bloqueado-foreground/60" stroke-width="0.8"></polygon><polygon points="177.1,430.0 215.7,430.0 220.7,502.5 182.1,502.5" class="cursor-pointer stroke-foreground/70 transition-[fill-opacity] fill-disponivel-foreground/70" stroke-width="0.8"></polygon><polygon points="215.7,430.0 254.3,430.0 259.3,502.5 220.7,502.5" class="cursor-pointer stroke-foreground/70 transition-[fill-opacity] fill-cancelado-foreground/70" stroke-width="0.8"></polygon><polygon points="254.3,430.0 292.9,430.0 297.9,502.5 259.3,502.5" class="cursor-pointer stroke-foreground/70 transition-[fill-opacity] fill-disponivel-foreground/70" stroke-width="0.8"></polygon><polygon points="292.9,430.0 331.4,430.0 336.4,502.5 297.9,502.5" class="cursor-pointer stroke-foreground/70 transition-[fill-opacity] fill-disponivel-foreground/70" stroke-width="0.8"></polygon><polygon points="331.4,430.0 370.0,430.0 375.0,502.5 336.4,502.5" class="cursor-pointer stroke-foreground/70 transition-[fill-opacity] fill-disponivel-foreground/70" stroke-width="0.8"></polygon><polygon points="105.0,502.5 143.6,502.5 148.6,575.0 110.0,575.0" class="cursor-pointer stroke-foreground/70 transition-[fill-opacity] fill-reservado-foreground/70" stroke-width="0.8"></polygon><polygon points="143.6,502.5 182.1,502.5 187.1,575.0 148.6,575.0" class="cursor-pointer stroke-foreground/70 transition-[fill-opacity] fill-vendido-foreground/70" stroke-width="0.8"></polygon><polygon points="182.1,502.5 220.7,502.5 225.7,575.0 187.1,575.0" class="cursor-pointer stroke-foreground/70 transition-[fill-opacity] fill-disponivel-foreground/70" stroke-width="0.8"></polygon><polygon points="220.7,502.5 259.3,502.5 264.3,575.0 225.7,575.0" class="cursor-pointer stroke-foreground/70 transition-[fill-opacity] fill-aprovacao-foreground/70" stroke-width="0.8"></polygon><polygon points="259.3,502.5 297.9,502.5 302.9,575.0 264.3,575.0" class="cursor-pointer stroke-foreground/70 transition-[fill-opacity] fill-vendido-foreground/70" stroke-width="0.8"></polygon><polygon points="297.9,502.5 336.4,502.5 341.4,575.0 302.9,575.0" class="cursor-pointer stroke-foreground/70 transition-[fill-opacity] fill-disponivel-foreground/70" stroke-width="0.8"></polygon><polygon points="336.4,502.5 375.0,502.5 380.0,575.0 341.4,575.0" class="cursor-pointer stroke-foreground/70 transition-[fill-opacity] fill-bloqueado-foreground/60" stroke-width="0.8"></polygon><text x="235" y="502.5" text-anchor="middle" dominant-baseline="middle" class="pointer-events-none fill-foreground/45 font-display" font-size="22" font-weight="800">Q<!-- -->09</text></g><g><polygon points="400.0,430.0 435.7,430.0 435.7,502.5 400.0,502.5" class="cursor-pointer stroke-foreground/70 transition-[fill-opacity] fill-disponivel-foreground/70" stroke-width="0.8"></polygon><polygon points="435.7,430.0 471.4,430.0 471.4,502.5 435.7,502.5" class="cursor-pointer stroke-foreground/70 transition-[fill-opacity] fill-cancelado-foreground/70" stroke-width="0.8"></polygon><polygon points="471.4,430.0 507.1,430.0 507.1,502.5 471.4,502.5" class="cursor-pointer stroke-foreground/70 transition-[fill-opacity] fill-disponivel-foreground/70" stroke-width="0.8"></polygon><polygon points="507.1,430.0 542.9,430.0 542.9,502.5 507.1,502.5" class="cursor-pointer stroke-foreground/70 transition-[fill-opacity] fill-disponivel-foreground/70" stroke-width="0.8"></polygon><polygon points="542.9,430.0 578.6,430.0 578.6,502.5 542.9,502.5" class="cursor-pointer stroke-foreground/70 transition-[fill-opacity] fill-disponivel-foreground/70" stroke-width="0.8"></polygon><polygon points="578.6,430.0 614.3,430.0 614.3,502.5 578.6,502.5" class="cursor-pointer stroke-foreground/70 transition-[fill-opacity] fill-reservado-foreground/70" stroke-width="0.8"></polygon><polygon points="614.3,430.0 650.0,430.0 650.0,502.5 614.3,502.5" class="cursor-pointer stroke-foreground/70 transition-[fill-opacity] fill-vendido-foreground/70" stroke-width="0.8"></polygon><polygon points="400.0,502.5 435.7,502.5 435.7,575.0 400.0,575.0" class="cursor-pointer stroke-foreground/70 transition-[fill-opacity] fill-disponivel-foreground/70" stroke-width="0.8"></polygon><polygon points="435.7,502.5 471.4,502.5 471.4,575.0 435.7,575.0" class="cursor-pointer stroke-foreground/70 transition-[fill-opacity] fill-aprovacao-foreground/70" stroke-width="0.8"></polygon><polygon points="471.4,502.5 507.1,502.5 507.1,575.0 471.4,575.0" class="cursor-pointer stroke-foreground/70 transition-[fill-opacity] fill-vendido-foreground/70" stroke-width="0.8"></polygon><polygon points="507.1,502.5 542.9,502.5 542.9,575.0 507.1,575.0" class="cursor-pointer stroke-foreground/70 transition-[fill-opacity] fill-disponivel-foreground/70" stroke-width="0.8"></polygon><polygon points="542.9,502.5 578.6,502.5 578.6,575.0 542.9,575.0" class="cursor-pointer stroke-foreground/70 transition-[fill-opacity] fill-bloqueado-foreground/60" stroke-width="0.8"></polygon><polygon points="578.6,502.5 614.3,502.5 614.3,575.0 578.6,575.0" class="cursor-pointer stroke-foreground/70 transition-[fill-opacity] fill-disponivel-foreground/70" stroke-width="0.8"></polygon><polygon points="614.3,502.5 650.0,502.5 650.0,575.0 614.3,575.0" class="cursor-pointer stroke-foreground/70 transition-[fill-opacity] fill-cancelado-foreground/70" stroke-width="0.8"></polygon><text x="525" y="502.5" text-anchor="middle" dominant-baseline="middle" class="pointer-events-none fill-foreground/45 font-display" font-size="22" font-weight="800">Q<!-- -->10</text></g><g><polygon points="680.0,440.0 720.0,440.0 720.0,512.5 680.0,512.5" class="cursor-pointer stroke-foreground/70 transition-[fill-opacity] fill-disponivel-foreground/70" stroke-width="0.8"></polygon><polygon points="720.0,440.0 760.0,440.0 760.0,512.5 720.0,512.5" class="cursor-pointer stroke-foreground/70 transition-[fill-opacity] fill-disponivel-foreground/70" stroke-width="0.8"></polygon><polygon points="760.0,440.0 800.0,440.0 800.0,512.5 760.0,512.5" class="cursor-pointer stroke-foreground/70 transition-[fill-opacity] fill-disponivel-foreground/70" stroke-width="0.8"></polygon><polygon points="800.0,440.0 840.0,440.0 840.0,512.5 800.0,512.5" class="cursor-pointer stroke-foreground/70 transition-[fill-opacity] fill-reservado-foreground/70" stroke-width="0.8"></polygon><polygon points="840.0,440.0 880.0,440.0 880.0,512.5 840.0,512.5" class="cursor-pointer stroke-foreground/70 transition-[fill-opacity] fill-vendido-foreground/70" stroke-width="0.8"></polygon><polygon points="880.0,440.0 920.0,440.0 920.0,512.5 880.0,512.5" class="cursor-pointer stroke-foreground/70 transition-[fill-opacity] fill-disponivel-foreground/70" stroke-width="0.8"></polygon><polygon points="680.0,512.5 720.0,512.5 720.0,585.0 680.0,585.0" class="cursor-pointer stroke-foreground/70 transition-[fill-opacity] fill-aprovacao-foreground/70" stroke-width="0.8"></polygon><polygon points="720.0,512.5 760.0,512.5 760.0,585.0 720.0,585.0" class="cursor-pointer stroke-foreground/70 transition-[fill-opacity] fill-vendido-foreground/70" stroke-width="0.8"></polygon><polygon points="760.0,512.5 800.0,512.5 800.0,585.0 760.0,585.0" class="cursor-pointer stroke-foreground/70 transition-[fill-opacity] fill-disponivel-foreground/70" stroke-width="0.8"></polygon><polygon points="800.0,512.5 840.0,512.5 840.0,585.0 800.0,585.0" class="cursor-pointer stroke-foreground/70 transition-[fill-opacity] fill-bloqueado-foreground/60" stroke-width="0.8"></polygon><polygon points="840.0,512.5 880.0,512.5 880.0,585.0 840.0,585.0" class="cursor-pointer stroke-foreground/70 transition-[fill-opacity] fill-disponivel-foreground/70" stroke-width="0.8"></polygon><polygon points="880.0,512.5 920.0,512.5 920.0,585.0 880.0,585.0" class="cursor-pointer stroke-foreground/70 transition-[fill-opacity] fill-cancelado-foreground/70" stroke-width="0.8"></polygon><text x="800" y="512.5" text-anchor="middle" dominant-baseline="middle" class="pointer-events-none fill-foreground/45 font-display" font-size="22" font-weight="800">Q<!-- -->11</text></g><g><polygon points="950.0,460.0 992.5,460.0 992.5,532.5 950.0,532.5" class="cursor-pointer stroke-foreground/70 transition-[fill-opacity] fill-disponivel-foreground/70" stroke-width="0.8"></polygon><polygon points="992.5,460.0 1035.0,460.0 1035.0,532.5 992.5,532.5" class="cursor-pointer stroke-foreground/70 transition-[fill-opacity] fill-disponivel-foreground/70" stroke-width="0.8"></polygon><polygon points="1035.0,460.0 1077.5,460.0 1077.5,532.5 1035.0,532.5" class="cursor-pointer stroke-foreground/70 transition-[fill-opacity] fill-disponivel-foreground/70" stroke-width="0.8"></polygon><polygon points="1077.5,460.0 1120.0,460.0 1120.0,532.5 1077.5,532.5" class="cursor-pointer stroke-foreground/70 transition-[fill-opacity] fill-reservado-foreground/70" stroke-width="0.8"></polygon><polygon points="950.0,532.5 992.5,532.5 992.5,605.0 950.0,605.0" class="cursor-pointer stroke-foreground/70 transition-[fill-opacity] fill-vendido-foreground/70" stroke-width="0.8"></polygon><polygon points="992.5,532.5 1035.0,532.5 1035.0,605.0 992.5,605.0" class="cursor-pointer stroke-foreground/70 transition-[fill-opacity] fill-disponivel-foreground/70" stroke-width="0.8"></polygon><polygon points="1035.0,532.5 1077.5,532.5 1077.5,605.0 1035.0,605.0" class="cursor-pointer stroke-foreground/70 transition-[fill-opacity] fill-aprovacao-foreground/70" stroke-width="0.8"></polygon><polygon points="1077.5,532.5 1120.0,532.5 1120.0,605.0 1077.5,605.0" class="cursor-pointer stroke-foreground/70 transition-[fill-opacity] fill-vendido-foreground/70" stroke-width="0.8"></polygon><text x="1035" y="532.5" text-anchor="middle" dominant-baseline="middle" class="pointer-events-none fill-foreground/45 font-display" font-size="22" font-weight="800">Q<!-- -->12</text></g><g><polygon points="150.0,620.0 187.1,620.0 187.1,685.0 150.0,685.0" class="cursor-pointer stroke-foreground/70 transition-[fill-opacity] fill-disponivel-foreground/70" stroke-width="0.8"></polygon><polygon points="187.1,620.0 224.3,620.0 224.3,685.0 187.1,685.0" class="cursor-pointer stroke-foreground/70 transition-[fill-opacity] fill-bloqueado-foreground/60" stroke-width="0.8"></polygon><polygon points="224.3,620.0 261.4,620.0 261.4,685.0 224.3,685.0" class="cursor-pointer stroke-foreground/70 transition-[fill-opacity] fill-disponivel-foreground/70" stroke-width="0.8"></polygon><polygon points="261.4,620.0 298.6,620.0 298.6,685.0 261.4,685.0" class="cursor-pointer stroke-foreground/70 transition-[fill-opacity] fill-cancelado-foreground/70" stroke-width="0.8"></polygon><polygon points="298.6,620.0 335.7,620.0 335.7,685.0 298.6,685.0" class="cursor-pointer stroke-foreground/70 transition-[fill-opacity] fill-disponivel-foreground/70" stroke-width="0.8"></polygon><polygon points="335.7,620.0 372.9,620.0 372.9,685.0 335.7,685.0" class="cursor-pointer stroke-foreground/70 transition-[fill-opacity] fill-disponivel-foreground/70" stroke-width="0.8"></polygon><polygon points="372.9,620.0 410.0,620.0 410.0,685.0 372.9,685.0" class="cursor-pointer stroke-foreground/70 transition-[fill-opacity] fill-disponivel-foreground/70" stroke-width="0.8"></polygon><polygon points="150.0,685.0 187.1,685.0 187.1,750.0 150.0,750.0" class="cursor-pointer stroke-foreground/70 transition-[fill-opacity] fill-reservado-foreground/70" stroke-width="0.8"></polygon><polygon points="187.1,685.0 224.3,685.0 224.3,750.0 187.1,750.0" class="cursor-pointer stroke-foreground/70 transition-[fill-opacity] fill-vendido-foreground/70" stroke-width="0.8"></polygon><polygon points="224.3,685.0 261.4,685.0 261.4,750.0 224.3,750.0" class="cursor-pointer stroke-foreground/70 transition-[fill-opacity] fill-disponivel-foreground/70" stroke-width="0.8"></polygon><polygon points="261.4,685.0 298.6,685.0 298.6,750.0 261.4,750.0" class="cursor-pointer stroke-foreground/70 transition-[fill-opacity] fill-aprovacao-foreground/70" stroke-width="0.8"></polygon><polygon points="298.6,685.0 335.7,685.0 335.7,750.0 298.6,750.0" class="cursor-pointer stroke-foreground/70 transition-[fill-opacity] fill-vendido-foreground/70" stroke-width="0.8"></polygon><polygon points="335.7,685.0 372.9,685.0 372.9,750.0 335.7,750.0" class="cursor-pointer stroke-foreground/70 transition-[fill-opacity] fill-disponivel-foreground/70" stroke-width="0.8"></polygon><polygon points="372.9,685.0 410.0,685.0 410.0,750.0 372.9,750.0" class="cursor-pointer stroke-foreground/70 transition-[fill-opacity] fill-bloqueado-foreground/60" stroke-width="0.8"></polygon><text x="280" y="685" text-anchor="middle" dominant-baseline="middle" class="pointer-events-none fill-foreground/45 font-display" font-size="22" font-weight="800">Q<!-- -->13</text></g><g><polygon points="440.0,630.0 475.7,630.0 475.7,695.0 440.0,695.0" class="cursor-pointer stroke-foreground/70 transition-[fill-opacity] fill-disponivel-foreground/70" stroke-width="0.8"></polygon><polygon points="475.7,630.0 511.4,630.0 511.4,695.0 475.7,695.0" class="cursor-pointer stroke-foreground/70 transition-[fill-opacity] fill-cancelado-foreground/70" stroke-width="0.8"></polygon><polygon points="511.4,630.0 547.1,630.0 547.1,695.0 511.4,695.0" class="cursor-pointer stroke-foreground/70 transition-[fill-opacity] fill-disponivel-foreground/70" stroke-width="0.8"></polygon><polygon points="547.1,630.0 582.9,630.0 582.9,695.0 547.1,695.0" class="cursor-pointer stroke-foreground/70 transition-[fill-opacity] fill-disponivel-foreground/70" stroke-width="0.8"></polygon><polygon points="582.9,630.0 618.6,630.0 618.6,695.0 582.9,695.0" class="cursor-pointer stroke-foreground/70 transition-[fill-opacity] fill-disponivel-foreground/70" stroke-width="0.8"></polygon><polygon points="618.6,630.0 654.3,630.0 654.3,695.0 618.6,695.0" class="cursor-pointer stroke-foreground/70 transition-[fill-opacity] fill-reservado-foreground/70" stroke-width="0.8"></polygon><polygon points="654.3,630.0 690.0,630.0 690.0,695.0 654.3,695.0" class="cursor-pointer stroke-foreground/70 transition-[fill-opacity] fill-vendido-foreground/70" stroke-width="0.8"></polygon><polygon points="440.0,695.0 475.7,695.0 475.7,760.0 440.0,760.0" class="cursor-pointer stroke-foreground/70 transition-[fill-opacity] fill-disponivel-foreground/70" stroke-width="0.8"></polygon><polygon points="475.7,695.0 511.4,695.0 511.4,760.0 475.7,760.0" class="cursor-pointer stroke-foreground/70 transition-[fill-opacity] fill-aprovacao-foreground/70" stroke-width="0.8"></polygon><polygon points="511.4,695.0 547.1,695.0 547.1,760.0 511.4,760.0" class="cursor-pointer stroke-foreground/70 transition-[fill-opacity] fill-vendido-foreground/70" stroke-width="0.8"></polygon><polygon points="547.1,695.0 582.9,695.0 582.9,760.0 547.1,760.0" class="cursor-pointer stroke-foreground/70 transition-[fill-opacity] fill-disponivel-foreground/70" stroke-width="0.8"></polygon><polygon points="582.9,695.0 618.6,695.0 618.6,760.0 582.9,760.0" class="cursor-pointer stroke-foreground/70 transition-[fill-opacity] fill-bloqueado-foreground/60" stroke-width="0.8"></polygon><polygon points="618.6,695.0 654.3,695.0 654.3,760.0 618.6,760.0" class="cursor-pointer stroke-foreground/70 transition-[fill-opacity] fill-disponivel-foreground/70" stroke-width="0.8"></polygon><polygon points="654.3,695.0 690.0,695.0 690.0,760.0 654.3,760.0" class="cursor-pointer stroke-foreground/70 transition-[fill-opacity] fill-cancelado-foreground/70" stroke-width="0.8"></polygon><text x="565" y="695" text-anchor="middle" dominant-baseline="middle" class="pointer-events-none fill-foreground/45 font-display" font-size="22" font-weight="800">Q<!-- -->14</text></g><g><polygon points="720.0,630.0 758.3,630.0 752.3,695.0 714.0,695.0" class="cursor-pointer stroke-foreground/70 transition-[fill-opacity] fill-disponivel-foreground/70" stroke-width="0.8"></polygon><polygon points="758.3,630.0 796.7,630.0 790.7,695.0 752.3,695.0" class="cursor-pointer stroke-foreground/70 transition-[fill-opacity] fill-disponivel-foreground/70" stroke-width="0.8"></polygon><polygon points="796.7,630.0 835.0,630.0 829.0,695.0 790.7,695.0" class="cursor-pointer stroke-foreground/70 transition-[fill-opacity] fill-disponivel-foreground/70" stroke-width="0.8"></polygon><polygon points="835.0,630.0 873.3,630.0 867.3,695.0 829.0,695.0" class="cursor-pointer stroke-foreground/70 transition-[fill-opacity] fill-reservado-foreground/70" stroke-width="0.8"></polygon><polygon points="873.3,630.0 911.7,630.0 905.7,695.0 867.3,695.0" class="cursor-pointer stroke-foreground/70 transition-[fill-opacity] fill-vendido-foreground/70" stroke-width="0.8"></polygon><polygon points="911.7,630.0 950.0,630.0 944.0,695.0 905.7,695.0" class="cursor-pointer stroke-foreground/70 transition-[fill-opacity] fill-disponivel-foreground/70" stroke-width="0.8"></polygon><polygon points="714.0,695.0 752.3,695.0 746.3,760.0 708.0,760.0" class="cursor-pointer stroke-foreground/70 transition-[fill-opacity] fill-aprovacao-foreground/70" stroke-width="0.8"></polygon><polygon points="752.3,695.0 790.7,695.0 784.7,760.0 746.3,760.0" class="cursor-pointer stroke-foreground/70 transition-[fill-opacity] fill-vendido-foreground/70" stroke-width="0.8"></polygon><polygon points="790.7,695.0 829.0,695.0 823.0,760.0 784.7,760.0" class="cursor-pointer stroke-foreground/70 transition-[fill-opacity] fill-disponivel-foreground/70" stroke-width="0.8"></polygon><polygon points="829.0,695.0 867.3,695.0 861.3,760.0 823.0,760.0" class="cursor-pointer stroke-foreground/70 transition-[fill-opacity] fill-bloqueado-foreground/60" stroke-width="0.8"></polygon><polygon points="867.3,695.0 905.7,695.0 899.7,760.0 861.3,760.0" class="cursor-pointer stroke-foreground/70 transition-[fill-opacity] fill-disponivel-foreground/70" stroke-width="0.8"></polygon><polygon points="905.7,695.0 944.0,695.0 938.0,760.0 899.7,760.0" class="cursor-pointer stroke-foreground/70 transition-[fill-opacity] fill-cancelado-foreground/70" stroke-width="0.8"></polygon><text x="835" y="695" text-anchor="middle" dominant-baseline="middle" class="pointer-events-none fill-foreground/45 font-display" font-size="22" font-weight="800">Q<!-- -->15</text></g><g transform="translate(1090,760)" class="pointer-events-none"><circle r="26" class="fill-card stroke-foreground/40" stroke-width="1.5"></circle><path d="M0,-18 L6,6 L0,1 L-6,6 Z" class="fill-foreground/80"></path><text y="22" text-anchor="middle" font-size="11" class="fill-foreground/70">N</text></g><g transform="translate(60,820)" class="pointer-events-none"><rect width="60" height="6" class="fill-foreground/80"></rect><rect x="60" width="60" height="6" class="fill-card stroke-foreground/70"></rect><text y="22" font-size="12" class="fill-foreground/70">0 50 100 m</text></g></svg>

